# xmcd
#
# Track frame offsets:
#	150
#	18177
#	39653
#	52094
#	70765
#	87853
#	93516
#	113357
#	130469
#	151574
#	169189
#	189345
#	203487
#	224958
#	241509
#	260685
#	280953
#	298691
#	316496
#
# Disc length: 4493 seconds
#
# Revision: 0
# Processed by: cddbd v1.5.2PL0 Copyright (c) Steve Scherf et al.
# Submitted via: EZCDAudioConverter 4.0.9.1
#
DISCID=0d118b13
DTITLE=萧亚轩 - 我不属于你
DYEAR=1900
DGENRE=
TTITLE0=我不属于你
TTITLE1=对你好
TTITLE2=我是我自己
TTITLE3=美丽的插曲
TTITLE4=未来的未来
TTITLE5=旧事
TTITLE6=爱情通关密语
TTITLE7=你是我心中一句惊叹
TTITLE8=地下铁
TTITLE9=吻
TTITLE10=没有人
TTITLE11=一个人的精彩
TTITLE12=爱的主打歌
TTITLE13=我爱你那么多
TTITLE14=他和她的故事
TTITLE15=明天
TTITLE16=穿越时空遇见你
TTITLE17=我喜欢你快乐
TTITLE18=问自己
EXTD=
EXTT0=
EXTT1=
EXTT2=
EXTT3=
EXTT4=
EXTT5=
EXTT6=
EXTT7=
EXTT8=
EXTT9=
EXTT10=
EXTT11=
EXTT12=
EXTT13=
EXTT14=
EXTT15=
EXTT16=
EXTT17=
EXTT18=
PLAYORDER=
